<svg id="Layer_1" enable-background="new 0 0 512.003 512.003" height="512" viewBox="0 0 512.003 512.003" width="512" xmlns="http://www.w3.org/2000/svg"><g><g clip-rule="evenodd" fill-rule="evenodd"><path d="m225.59 180.733v-10.967c0-11.017 9.014-20.032 20.032-20.032s20.032 9.014 20.032 20.032v20.033c0-11.019 9.014-20.032 20.031-20.032.365 0 .729.01 1.089.029 10.516.571 18.943 9.349 18.943 20.002v37.196l14.724 8.501c9.542 5.509 21.855 2.209 27.364-7.333 5.509-9.541 2.21-21.855-7.332-27.364l-34.697-20.032c9.541 5.509 21.854 2.21 27.363-7.332s2.21-21.855-7.332-27.364l-37.996-21.937-41.277-23.831-23.321-13.465-133.086-76.836-80.127 138.784 15.535 8.969 21.669 90.723c1.718 10.244 5.794 17.656 15.335 23.165l56.858 32.827c8.852 5.111 20.09 2.638 26.066-5.364v-23.472c-1.585-2.247-3.619-4.247-6.035-5.859-8.085-5.395-20.089-14.074-27.385-20.368-3.705-6.417-.212-21.347 3.986-39.404l29.624 17.103c1.354-9.724 9.759-17.273 19.841-17.273 11.018 0 20.032 9.014 20.032 20.031v-40.065c0-11.018 9.014-20.031 20.032-20.031 6.978 0 13.153 3.616 16.74 9.065z" fill="#f5c6af"/><path d="m225.59 169.766v10.967 9.065c0-4.039-1.212-7.809-3.289-10.965-3.59-5.451-9.765-9.067-16.743-9.067-11.018 0-20.032 9.014-20.032 20.031v40.065c0-11.018-9.014-20.031-20.032-20.031-10.082 0-18.486 7.548-19.841 17.273-.126.902-.191 1.823-.191 2.759v45.769 23.472 202.898h160.253v-17.938l67.735-64.127c8.013-6.61 12.394-13.846 12.394-24.863v-65.654c0-11.018-9.016-20.032-20.032-20.032-11.017 0-19.318 9.038-20.031 20.032-.63 9.7-2.144 24.435-3.947 33.9-3.705 6.417-18.381 10.857-36.118 16.25v-106.315-46.26-37.196c0-10.653-8.426-19.432-18.943-20.002-.361-.02-.724-.029-1.089-.029-11.018 0-20.031 9.013-20.031 20.032v-20.033c0-11.017-9.014-20.032-20.032-20.032-11.017-.001-20.031 9.013-20.031 20.031z" fill="#ffdcd5"/><path d="m305.716 226.995v46.26l12.041 6.952c9.542 5.509 21.855 2.21 27.364-7.332 5.509-9.541 2.209-21.855-7.332-27.363l-17.349-10.016z" fill="#f5c6af"/><path d="m340.472 200.799c9.542 5.509 12.841 17.822 7.332 27.364s-17.822 12.842-27.364 7.333l17.349 10.016c9.542 5.509 12.841 17.822 7.332 27.363-5.509 9.542-17.822 12.841-27.364 7.332l-12.041-6.952v25.586l196.285-113.326-80.126-138.784-15.534 8.969-89.403-26.596c-9.731-3.634-18.188-3.811-27.729 1.698l-56.859 32.828c-8.202 4.735-11.79 14.5-9.138 23.208l23.321 13.465c1.986-.386 3.956-1.042 5.848-1.977 8.715-4.304 22.233-10.361 31.332-13.532 7.41 0 18.593 10.49 32.132 23.154l-28.035 16.186 37.996 21.937c9.542 5.509 12.841 17.822 7.332 27.364s-17.822 12.841-27.363 7.332z" fill="#ffdcd5"/></g><g><path d="m510.662 180.515-80.127-138.783c-1.326-2.297-3.51-3.973-6.072-4.659-2.563-.688-5.292-.328-7.588.999l-11.808 6.817-84.966-25.276c-13.141-4.824-24.555-4.017-35.894 2.53l-56.857 32.826c-6.132 3.54-10.601 8.968-13.003 15.204l-119.22-68.832c-4.782-2.76-10.899-1.123-13.66 3.66l-80.127 138.783c-1.326 2.297-1.686 5.026-.999 7.588.687 2.563 2.362 4.746 4.659 6.072l11.808 6.817 20.593 86.221c2.394 13.791 8.799 23.273 20.138 29.819l56.857 32.827c4.642 2.68 9.788 3.969 14.9 3.969 2.074 0 4.14-.221 6.166-.639v185.544c0 5.522 4.477 10 10 10h160.253c5.523 0 10-4.478 10-10v-13.635l64.372-60.944c10.748-8.969 15.756-19.257 15.756-32.35v-65.653c0-16.56-13.472-30.031-30.032-30.031-16.022 0-28.923 12.632-30.01 29.384-.568 8.759-1.863 21.396-3.345 30.182-2.661 2.095-9.414 4.621-16.741 7.022v-61.362l191.285-110.44c4.785-2.762 6.423-8.877 3.662-13.66zm-386.266 115.294-56.857-32.827c-6.266-3.617-9.104-7.997-10.473-16.159-.038-.225-.083-.447-.136-.669l-21.669-90.724c-.638-2.672-2.348-4.964-4.727-6.337l-6.874-3.969 70.127-121.463 227.02 131.069c4.791 2.766 6.438 8.913 3.671 13.704-1.329 2.302-3.494 3.953-6.097 4.65-2.604.697-5.305.351-7.606-.979-.428-.247-.869-.447-1.316-.624-4.677-6.057-11.608-10.283-19.528-11.41l-53.469-30.87c-4.782-2.76-10.898-1.123-13.66 3.66s-1.123 10.898 3.66 13.66l.115.067c-4.74 3.902-8.283 9.209-9.94 15.296-3.43-1.366-7.169-2.118-11.081-2.118-16.56 0-30.032 13.472-30.032 30.031v11.756c-3.139-1.115-6.516-1.723-10.032-1.723-10.211 0-19.243 5.127-24.671 12.938l-19.793-11.428c-2.742-1.584-6.073-1.775-8.98-.514-2.906 1.261-5.042 3.824-5.76 6.909l-.054.231c-4.944 21.264-8.516 36.627-2.854 46.437.56.971 1.28 1.841 2.128 2.573 7.689 6.632 20.095 15.594 28.366 21.112.568.379 1.093.801 1.586 1.251v15.762c-3.148 2.369-7.54 2.742-11.064.708zm163.415-183.222-18.948-10.94c5.456-2.439 11.109-4.818 15.758-6.55 3.145 1.258 8.708 5.843 14.452 10.987zm27.905 131.728 17.06 9.85c.004.002.008.005.013.007 4.79 2.766 6.438 8.912 3.673 13.702v.001c-2.765 4.791-8.912 6.437-13.704 3.672l-7.041-4.065v-23.167zm23.428-21.153c-1.329 2.302-3.495 3.954-6.098 4.651-2.604.696-5.304.351-7.605-.979l-9.724-5.614v-23.168l19.756 11.406c2.302 1.329 3.953 3.494 4.651 6.098.696 2.603.349 5.304-.98 7.606zm-203.681 31.686c-5.287-3.794-10.757-7.915-14.95-11.38-.483-3.353.705-10.463 2.289-18.01l12.661 7.31zm215.033 113.472c.56-.971.953-2.028 1.163-3.129 1.9-9.974 3.458-25.198 4.102-35.124.336-5.177 3.973-10.679 10.052-10.679 5.531 0 10.032 4.5 10.032 10.031v65.654c0 7.235-2.374 11.883-8.757 17.149-.176.145-.346.296-.511.452l-67.734 64.128c-1.995 1.889-3.125 4.515-3.125 7.262v7.938h-140.255v-262.14c0-5.532 4.5-10.032 10.031-10.032s10.032 4.5 10.032 10.032v.01 85.799c0 5.522 4.477 10 10 10s10-4.478 10-10v-85.809c0-.003 0-.006 0-.01v-40.056c0-5.531 4.5-10.031 10.032-10.031 3.39 0 6.387 1.694 8.204 4.276.068.111.146.216.219.325 1.014 1.567 1.61 3.429 1.61 5.431v80.87c0 5.522 4.477 10 10 10s10-4.478 10-10v-80.87-20.032c0-5.531 4.5-10.031 10.032-10.031 5.531 0 10.031 4.5 10.031 10.031v20.032.001 125.873c0 5.522 4.477 10 10 10s10-4.478 10-10v-125.872c0-5.532 4.5-10.032 10.032-10.032s10.032 4.5 10.032 10.032v189.771c0 3.168 1.501 6.148 4.046 8.034 2.544 1.886 5.833 2.454 8.863 1.533l.239-.072c20.88-6.349 35.967-10.937 41.63-20.745zm6.793-110.802c-1.071-5.892-3.863-11.445-8.197-15.815 2.944-2.322 5.445-5.203 7.372-8.541 4-6.928 5.057-15.019 2.977-22.782s-7.041-14.241-13.969-18.241l-10.177-5.876c2.569-2.189 4.77-4.824 6.504-7.828 8.279-14.342 3.348-32.745-10.993-41.024l-22.996-13.277 13.035-7.526c2.743-1.584 4.574-4.374 4.935-7.521s-.791-6.279-3.104-8.443l-.178-.166c-15.942-14.911-27.459-25.685-38.785-25.685-1.121 0-2.233.188-3.292.558-9.59 3.343-23.553 9.605-32.468 14.009-.071.035-.146.057-.217.091l-15.37-8.874c.159-3.36 1.992-6.559 4.983-8.286l56.858-32.827c6.266-3.617 11.478-3.886 19.23-.99.213.079.429.151.647.217l89.403 26.596c2.634.785 5.473.449 7.852-.925l6.874-3.969 70.126 121.463z"/><path d="m225.59 305.668c-5.523 0-10 4.481-10 10.004s4.477 10 10 10 10-4.478 10-10v-.008c0-5.522-4.477-9.996-10-9.996z"/></g></g></svg>